<svg xmlns="http://www.w3.org/2000/svg" viewBox="0 0 900 500" font-family="Arial, Helvetica, sans-serif">
  <rect width="900" height="500" fill="#1B2838" rx="12"/>
  <text x="450" y="35" text-anchor="middle" fill="#FFF" font-size="22" font-weight="bold">₦250M Capital Deployment Plan</text>
  <text x="450" y="58" text-anchor="middle" fill="#00BFFF" font-size="13">PECH Group Holdings Ltd — 24-Month Budget Allocation</text>

  <!-- Horizontal bar chart -->
  <!-- Hardware 30% -->
  <text x="30" y="105" fill="#FFF" font-size="12" font-weight="bold">Hardware (25 SKUs)</text>
  <rect x="220" y="90" width="420" height="28" rx="5" fill="#00BFFF"/>
  <text x="650" y="109" fill="#F5A623" font-size="13" font-weight="bold">₦75M — 30.0%</text>

  <!-- Human Capital 28% -->
  <text x="30" y="145" fill="#FFF" font-size="12" font-weight="bold">Human Capital (37 roles)</text>
  <rect x="220" y="130" width="392" height="28" rx="5" fill="#0099CC"/>
  <text x="622" y="149" fill="#F5A623" font-size="13" font-weight="bold">₦70M — 28.0%</text>

  <!-- Tech & AI 11.2% -->
  <text x="30" y="185" fill="#FFF" font-size="12" font-weight="bold">Tech & AI Infrastructure</text>
  <rect x="220" y="170" width="157" height="28" rx="5" fill="#F5A623"/>
  <text x="387" y="189" fill="#FFF" font-size="13" font-weight="bold">₦28M — 11.2%</text>

  <!-- Office & Ops 8% -->
  <text x="30" y="225" fill="#FFF" font-size="12" font-weight="bold">Office & Operations</text>
  <rect x="220" y="210" width="112" height="28" rx="5" fill="#E08A00"/>
  <text x="342" y="229" fill="#FFF" font-size="13" font-weight="bold">₦20M — 8.0%</text>

  <!-- Contingency 7.2% -->
  <text x="30" y="265" fill="#FFF" font-size="12" font-weight="bold">Contingency & FX</text>
  <rect x="220" y="250" width="101" height="28" rx="5" fill="#3A7CA5"/>
  <text x="331" y="269" fill="#FFF" font-size="13" font-weight="bold">₦18M — 7.2%</text>

  <!-- Marketing 6% -->
  <text x="30" y="305" fill="#FFF" font-size="12" font-weight="bold">Marketing & CAC</text>
  <rect x="220" y="290" width="84" height="28" rx="5" fill="#2E86AB"/>
  <text x="314" y="309" fill="#FFF" font-size="13" font-weight="bold">₦15M — 6.0%</text>

  <!-- Logistics 4.8% -->
  <text x="30" y="345" fill="#FFF" font-size="12" font-weight="bold">Logistics Setup</text>
  <rect x="220" y="330" width="67" height="28" rx="5" fill="#1A6B8A"/>
  <text x="297" y="349" fill="#FFF" font-size="13" font-weight="bold">₦12M — 4.8%</text>

  <!-- Compliance 4.8% -->
  <text x="30" y="385" fill="#FFF" font-size="12" font-weight="bold">Legal & Compliance</text>
  <rect x="220" y="370" width="67" height="28" rx="5" fill="#155E75"/>
  <text x="297" y="389" fill="#FFF" font-size="13" font-weight="bold">₦12M — 4.8%</text>

  <!-- Tech breakdown callout -->
  <rect x="520" y="155" width="360" height="145" rx="8" fill="#0D2137" stroke="#F5A623" stroke-width="1.5"/>
  <text x="530" y="175" fill="#F5A623" font-size="11" font-weight="bold">TECHNOLOGY ₦28M BREAKDOWN:</text>
  <text x="540" y="195" fill="#FFF" font-size="10">TRX50 AI Workstation (RTX 4090, landed)</text>
  <text x="810" y="195" fill="#00BFFF" font-size="10" text-anchor="end">₦8.2M–₦11M</text>
  <text x="540" y="212" fill="#FFF" font-size="10">Cloud Infrastructure (24mo)</text>
  <text x="810" y="212" fill="#00BFFF" font-size="10" text-anchor="end">₦14.2M</text>
  <text x="540" y="229" fill="#FFF" font-size="10">Cloud GPU bursting (24mo)</text>
  <text x="810" y="229" fill="#00BFFF" font-size="10" text-anchor="end">₦7.9M–₦18M</text>
  <text x="540" y="246" fill="#FFF" font-size="10">Dev Tools (GitHub, Cursor, etc.)</text>
  <text x="810" y="246" fill="#00BFFF" font-size="10" text-anchor="end">₦9.6M</text>
  <text x="540" y="263" fill="#FFF" font-size="10">UPS + AC + Rack</text>
  <text x="810" y="263" fill="#00BFFF" font-size="10" text-anchor="end">₦1.8M–₦2.8M</text>
  <text x="540" y="280" fill="#F5A623" font-size="10" font-weight="bold">Self-hosted AI = reduced cloud costs</text>

  <!-- PSSP callout -->
  <rect x="30" y="420" width="840" height="60" rx="8" fill="#0D2137" stroke="#E08A00" stroke-width="1.5" stroke-dasharray="5,3"/>
  <text x="50" y="443" fill="#E08A00" font-size="12" font-weight="bold">AFTER MONTH 9 (from business traction):</text>
  <text x="50" y="463" fill="#FFF" font-size="11">PSSP License: ~₦205M (₦100M capital + ₦100M escrow + fees) via PECH Payments Ltd subsidiary</text>
  <text x="680" y="463" fill="#F5A623" font-size="11" font-weight="bold">PTSP: ~₦201M later</text>

  <!-- Total -->
  <text x="450" y="497" text-anchor="middle" fill="#00BFFF" font-size="14" font-weight="bold">TOTAL FROM ₦250M FUND: ₦250,000,000</text>
</svg>