<svg xmlns="http://www.w3.org/2000/svg" viewBox="0 0 900 620" font-family="Arial, Helvetica, sans-serif">
  <rect width="900" height="620" fill="#1B2838" rx="12"/>
  <text x="450" y="35" text-anchor="middle" fill="#FFF" font-size="22" font-weight="bold">PECH Ecosystem Overview</text>
  <text x="450" y="55" text-anchor="middle" fill="#00BFFF" font-size="12">10 Verticals + Enterprise Business Systems Connected Through Unified AI Core</text>

  <!-- Central AI Core hexagon -->
  <polygon points="450,155 510,185 510,245 450,275 390,245 390,185" fill="#3A2A10" stroke="#F5A623" stroke-width="2.5"/>
  <text x="450" y="205" text-anchor="middle" fill="#F5A623" font-size="14" font-weight="bold">AI CORE</text>
  <text x="450" y="223" text-anchor="middle" fill="#FFF" font-size="9">Qwen2.5 · Whisper</text>
  <text x="450" y="237" text-anchor="middle" fill="#FFF" font-size="9">LangChain · Qdrant</text>
  <text x="450" y="251" text-anchor="middle" fill="#FFF" font-size="8">RTX 4090 Self-Hosted</text>

  <!-- Vertical boxes arranged around the core -->
  <!-- Top row -->
  <rect x="55" y="85" width="140" height="55" rx="8" fill="#0D2137" stroke="#00BFFF" stroke-width="1.5"/>
  <text x="125" y="105" text-anchor="middle" fill="#00BFFF" font-size="10" font-weight="bold">IoT &amp; Smart Home</text>
  <text x="125" y="120" text-anchor="middle" fill="#FFF" font-size="8">ThingsBoard · MQTT</text>
  <text x="125" y="133" text-anchor="middle" fill="#FFF" font-size="8">25 SKUs · Device Mgmt</text>
  <line x1="195" y1="120" x2="390" y2="190" stroke="#00BFFF" stroke-width="0.8" stroke-dasharray="3,3"/>

  <rect x="230" y="70" width="140" height="55" rx="8" fill="#0D2137" stroke="#00BFFF" stroke-width="1.5"/>
  <text x="300" y="90" text-anchor="middle" fill="#00BFFF" font-size="10" font-weight="bold">Marketplace</text>
  <text x="300" y="105" text-anchor="middle" fill="#FFF" font-size="8">Medusa · B2B/B2C</text>
  <text x="300" y="118" text-anchor="middle" fill="#FFF" font-size="8">Yiwu-Style Digital</text>
  <line x1="370" y1="105" x2="420" y2="170" stroke="#00BFFF" stroke-width="0.8" stroke-dasharray="3,3"/>

  <rect x="530" y="70" width="140" height="55" rx="8" fill="#0D2137" stroke="#00BFFF" stroke-width="1.5"/>
  <text x="600" y="90" text-anchor="middle" fill="#00BFFF" font-size="10" font-weight="bold">ERP (Free)</text>
  <text x="600" y="105" text-anchor="middle" fill="#FFF" font-size="8">ERPNext · Inventory</text>
  <text x="600" y="118" text-anchor="middle" fill="#FFF" font-size="8">SME Lock-In</text>
  <line x1="530" y1="105" x2="480" y2="170" stroke="#00BFFF" stroke-width="0.8" stroke-dasharray="3,3"/>

  <rect x="705" y="85" width="140" height="55" rx="8" fill="#0D2137" stroke="#00BFFF" stroke-width="1.5"/>
  <text x="775" y="105" text-anchor="middle" fill="#00BFFF" font-size="10" font-weight="bold">Solar Energy</text>
  <text x="775" y="120" text-anchor="middle" fill="#FFF" font-size="8">PECH Solar · Monitoring</text>
  <text x="775" y="133" text-anchor="middle" fill="#FFF" font-size="8">5kW-50kW Systems</text>
  <line x1="705" y1="120" x2="510" y2="195" stroke="#00BFFF" stroke-width="0.8" stroke-dasharray="3,3"/>

  <!-- Middle row (left & right) -->
  <rect x="30" y="190" width="140" height="55" rx="8" fill="#0D2137" stroke="#F5A623" stroke-width="1.5"/>
  <text x="100" y="210" text-anchor="middle" fill="#F5A623" font-size="10" font-weight="bold">Payments (PSSP)</text>
  <text x="100" y="225" text-anchor="middle" fill="#FFF" font-size="8">Fineract · POS/USSD</text>
  <text x="100" y="238" text-anchor="middle" fill="#FFF" font-size="8">₦205M License</text>
  <line x1="170" y1="218" x2="390" y2="215" stroke="#F5A623" stroke-width="0.8" stroke-dasharray="3,3"/>

  <rect x="730" y="190" width="140" height="55" rx="8" fill="#0D2137" stroke="#F5A623" stroke-width="1.5"/>
  <text x="800" y="210" text-anchor="middle" fill="#F5A623" font-size="10" font-weight="bold">Logistics</text>
  <text x="800" y="225" text-anchor="middle" fill="#FFF" font-size="8">OSRM · Hub-Spoke</text>
  <text x="800" y="238" text-anchor="middle" fill="#FFF" font-size="8">Last-Mile Delivery</text>
  <line x1="730" y1="218" x2="510" y2="215" stroke="#F5A623" stroke-width="0.8" stroke-dasharray="3,3"/>

  <!-- Bottom row -->
  <rect x="55" y="295" width="140" height="55" rx="8" fill="#0D2137" stroke="#0099CC" stroke-width="1.5"/>
  <text x="125" y="315" text-anchor="middle" fill="#00BFFF" font-size="10" font-weight="bold">Accounting AI</text>
  <text x="125" y="330" text-anchor="middle" fill="#FFF" font-size="8">Tax · Audit · Invoicing</text>
  <text x="125" y="343" text-anchor="middle" fill="#FFF" font-size="8">Subscription Tiers</text>
  <line x1="195" y1="310" x2="390" y2="250" stroke="#0099CC" stroke-width="0.8" stroke-dasharray="3,3"/>

  <rect x="230" y="310" width="140" height="55" rx="8" fill="#0D2137" stroke="#0099CC" stroke-width="1.5"/>
  <text x="300" y="330" text-anchor="middle" fill="#00BFFF" font-size="10" font-weight="bold">HR &amp; Recruitment</text>
  <text x="300" y="345" text-anchor="middle" fill="#FFF" font-size="8">Resume AI · Scoring</text>
  <text x="300" y="358" text-anchor="middle" fill="#FFF" font-size="8">Talent Marketplace</text>
  <line x1="370" y1="330" x2="420" y2="265" stroke="#0099CC" stroke-width="0.8" stroke-dasharray="3,3"/>

  <rect x="530" y="310" width="140" height="55" rx="8" fill="#0D2137" stroke="#0099CC" stroke-width="1.5"/>
  <text x="600" y="330" text-anchor="middle" fill="#00BFFF" font-size="10" font-weight="bold">Real Estate</text>
  <text x="600" y="345" text-anchor="middle" fill="#FFF" font-size="8">Estate Mgmt · Access</text>
  <text x="600" y="358" text-anchor="middle" fill="#FFF" font-size="8">Smart Property</text>
  <line x1="530" y1="330" x2="480" y2="265" stroke="#0099CC" stroke-width="0.8" stroke-dasharray="3,3"/>

  <rect x="705" y="295" width="140" height="55" rx="8" fill="#0D2137" stroke="#0099CC" stroke-width="1.5"/>
  <text x="775" y="315" text-anchor="middle" fill="#00BFFF" font-size="10" font-weight="bold">Advertising</text>
  <text x="775" y="330" text-anchor="middle" fill="#FFF" font-size="8">LED Displays · Digital</text>
  <text x="775" y="343" text-anchor="middle" fill="#FFF" font-size="8">Signage Platform</text>
  <line x1="705" y1="310" x2="510" y2="250" stroke="#0099CC" stroke-width="0.8" stroke-dasharray="3,3"/>

  <!-- Developer Platform (bottom center) -->
  <rect x="350" y="380" width="200" height="45" rx="8" fill="#0099CC"/>
  <text x="450" y="400" text-anchor="middle" fill="#FFF" font-size="11" font-weight="bold">Developer Platform</text>
  <text x="450" y="416" text-anchor="middle" fill="#FFF" font-size="9">APIs + SDKs + APISIX Gateway</text>
  <line x1="450" y1="380" x2="450" y2="275" stroke="#00BFFF" stroke-width="1.5" opacity="0.6"/>

  <!-- Business Systems Layer -->
  <rect x="40" y="440" width="820" height="55" rx="8" fill="#0D2137" stroke="#F5A623" stroke-width="1.5"/>
  <text x="60" y="458" fill="#F5A623" font-size="11" font-weight="bold">ENTERPRISE BUSINESS SYSTEMS:</text>
  <rect x="60" y="465" width="120" height="22" rx="4" fill="#7C3A00" stroke="#F5A623" stroke-width="0.8"/>
  <text x="120" y="480" text-anchor="middle" fill="#FFF" font-size="9" font-weight="bold">CRM</text>
  <rect x="190" y="465" width="120" height="22" rx="4" fill="#7C3A00" stroke="#F5A623" stroke-width="0.8"/>
  <text x="250" y="480" text-anchor="middle" fill="#FFF" font-size="9" font-weight="bold">OMS</text>
  <rect x="320" y="465" width="120" height="22" rx="4" fill="#7C3A00" stroke="#F5A623" stroke-width="0.8"/>
  <text x="380" y="480" text-anchor="middle" fill="#FFF" font-size="9" font-weight="bold">ERP</text>
  <rect x="450" y="465" width="120" height="22" rx="4" fill="#7C3A00" stroke="#F5A623" stroke-width="0.8"/>
  <text x="510" y="480" text-anchor="middle" fill="#FFF" font-size="9" font-weight="bold">SCM</text>
  <rect x="580" y="465" width="120" height="22" rx="4" fill="#7C3A00" stroke="#F5A623" stroke-width="0.8"/>
  <text x="640" y="480" text-anchor="middle" fill="#FFF" font-size="9" font-weight="bold">HRMS</text>
  <rect x="710" y="465" width="135" height="22" rx="4" fill="#7C3A00" stroke="#F5A623" stroke-width="0.8"/>
  <text x="777" y="480" text-anchor="middle" fill="#FFF" font-size="9" font-weight="bold">FINANCIAL</text>

  <!-- Infrastructure layer -->
  <rect x="40" y="510" width="820" height="55" rx="8" fill="#0D1B2A" stroke="#00BFFF" stroke-width="1"/>
  <text x="450" y="530" text-anchor="middle" fill="#00BFFF" font-size="12" font-weight="bold">INFRASTRUCTURE LAYER</text>
  <text x="140" y="550" text-anchor="middle" fill="#FFF" font-size="10">PostgreSQL</text>
  <text x="260" y="550" text-anchor="middle" fill="#FFF" font-size="10">Qdrant</text>
  <text x="370" y="550" text-anchor="middle" fill="#FFF" font-size="10">Redis</text>
  <text x="480" y="550" text-anchor="middle" fill="#FFF" font-size="10">NATS/Kafka</text>
  <text x="600" y="550" text-anchor="middle" fill="#FFF" font-size="10">Docker/K3s</text>
  <text x="730" y="550" text-anchor="middle" fill="#FFF" font-size="10">Prometheus</text>
  <text x="450" y="558" text-anchor="middle" fill="#F5A623" font-size="9">Self-Hosted | Lagos, Nigeria | RTX 4090 GPU Cluster</text>

  <!-- Footer -->
  <text x="450" y="600" text-anchor="middle" fill="#666" font-size="10">PECH Group Holdings Ltd — AI-Native Ecosystem — Confidential</text>
</svg>
