<svg xmlns="http://www.w3.org/2000/svg" viewBox="0 0 900 500" font-family="Arial, Helvetica, sans-serif">
  <rect width="900" height="500" fill="#1B2838" rx="12"/>
  <text x="450" y="35" text-anchor="middle" fill="#FFF" font-size="22" font-weight="bold">Revenue vs Expenses — 24-Month Projection</text>
  <text x="450" y="55" text-anchor="middle" fill="#00BFFF" font-size="12">Cash-Flow Positive Target: Month 19 | Break-Even: Month 15-16</text>

  <!-- Chart area -->
  <rect x="80" y="75" width="780" height="300" rx="4" fill="#0D2137" stroke="#0099CC" stroke-width="0.5"/>

  <!-- Y-axis labels -->
  <text x="70" y="85" fill="#FFF" font-size="9" text-anchor="end">₦25M</text>
  <text x="70" y="135" fill="#FFF" font-size="9" text-anchor="end">₦20M</text>
  <text x="70" y="185" fill="#FFF" font-size="9" text-anchor="end">₦15M</text>
  <text x="70" y="235" fill="#FFF" font-size="9" text-anchor="end">₦10M</text>
  <text x="70" y="285" fill="#FFF" font-size="9" text-anchor="end">₦5M</text>
  <text x="70" y="335" fill="#FFF" font-size="9" text-anchor="end">₦0</text>
  <text x="70" y="375" fill="#FFF" font-size="9" text-anchor="end">-₦5M</text>

  <!-- Grid lines -->
  <line x1="80" y1="80" x2="860" y2="80" stroke="#0099CC" stroke-width="0.3"/>
  <line x1="80" y1="130" x2="860" y2="130" stroke="#0099CC" stroke-width="0.3"/>
  <line x1="80" y1="180" x2="860" y2="180" stroke="#0099CC" stroke-width="0.3"/>
  <line x1="80" y1="230" x2="860" y2="230" stroke="#0099CC" stroke-width="0.3"/>
  <line x1="80" y1="280" x2="860" y2="280" stroke="#0099CC" stroke-width="0.3"/>
  <line x1="80" y1="330" x2="860" y2="330" stroke="#0099CC" stroke-width="0.3"/>

  <!-- X-axis labels -->
  <text x="113" y="395" fill="#FFF" font-size="8" text-anchor="middle">Mo 1</text>
  <text x="178" y="395" fill="#FFF" font-size="8" text-anchor="middle">Mo 3</text>
  <text x="243" y="395" fill="#FFF" font-size="8" text-anchor="middle">Mo 6</text>
  <text x="340" y="395" fill="#FFF" font-size="8" text-anchor="middle">Mo 9</text>
  <text x="438" y="395" fill="#FFF" font-size="8" text-anchor="middle">Mo 12</text>
  <text x="535" y="395" fill="#FFF" font-size="8" text-anchor="middle">Mo 15</text>
  <text x="633" y="395" fill="#FFF" font-size="8" text-anchor="middle">Mo 18</text>
  <text x="730" y="395" fill="#FFF" font-size="8" text-anchor="middle">Mo 21</text>
  <text x="828" y="395" fill="#FFF" font-size="8" text-anchor="middle">Mo 24</text>

  <!-- Expense line (red/orange) -->
  <polyline points="113,365 145,355 178,340 210,325 243,310 275,300 308,290 340,280 373,270 405,262 438,255 470,248 503,242 535,238 568,235 600,233 633,230 665,228 698,225 730,223 763,220 795,218 828,215" fill="none" stroke="#E08A00" stroke-width="2.5"/>

  <!-- Revenue line (blue) -->
  <polyline points="113,370 145,365 178,355 210,345 243,330 275,318 308,305 340,288 373,270 405,255 438,242 470,225 503,210 535,200 568,185 600,170 633,155 665,145 698,130 730,118 763,108 795,98 828,85" fill="none" stroke="#00BFFF" stroke-width="2.5"/>

  <!-- Break-even point -->
  <circle cx="535" cy="200" r="6" fill="none" stroke="#F5A623" stroke-width="2"/>
  <line x1="535" y1="206" x2="535" y2="250" stroke="#F5A623" stroke-width="1" stroke-dasharray="3,2"/>
  <text x="535" y="265" text-anchor="middle" fill="#F5A623" font-size="9" font-weight="bold">BREAK-EVEN</text>

  <!-- Cash positive point -->
  <circle cx="633" cy="155" r="6" fill="#F5A623"/>
  <line x1="633" y1="161" x2="633" y2="250" stroke="#F5A623" stroke-width="1" stroke-dasharray="3,2"/>
  <text x="633" y="265" text-anchor="middle" fill="#F5A623" font-size="9" font-weight="bold">CASH +VE</text>

  <!-- Shaded profit area (after break-even) -->
  <polygon points="535,200 568,185 600,170 633,155 665,145 698,130 730,118 763,108 795,98 828,85 828,215 795,218 763,220 730,223 698,225 665,228 633,230 600,233 568,235 535,238" fill="#00BFFF" fill-opacity="0.1"/>

  <!-- Legend -->
  <rect x="100" y="405" width="120" height="20" rx="4" fill="#0D2137" stroke="#00BFFF" stroke-width="1"/>
  <line x1="110" y1="415" x2="135" y2="415" stroke="#00BFFF" stroke-width="2.5"/>
  <text x="142" y="419" fill="#FFF" font-size="9">Revenue</text>

  <rect x="240" y="405" width="120" height="20" rx="4" fill="#0D2137" stroke="#E08A00" stroke-width="1"/>
  <line x1="250" y1="415" x2="275" y2="415" stroke="#E08A00" stroke-width="2.5"/>
  <text x="282" y="419" fill="#FFF" font-size="9">Expenses</text>

  <rect x="380" y="405" width="120" height="20" rx="4" fill="#0D2137" stroke="#F5A623" stroke-width="1"/>
  <circle cx="395" cy="415" r="4" fill="#F5A623"/>
  <text x="405" y="419" fill="#FFF" font-size="9">Milestones</text>

  <!-- Bottom summary -->
  <rect x="30" y="440" width="840" height="45" rx="8" fill="#0D2137" stroke="#F5A623" stroke-width="1" stroke-dasharray="4,3"/>
  <text x="50" y="462" fill="#F5A623" font-size="11" font-weight="bold">Mo 24 Target:</text>
  <text x="170" y="462" fill="#FFF" font-size="10">MRR ₦15-25M · Annual run rate ₦180-300M · Team: 37 · Self-funded AI operations</text>
  <text x="50" y="478" fill="#00BFFF" font-size="10">Revenue mix: Hardware 40% · SaaS 20% · Payments 15% · AI Services 10% · Marketplace 5% · Other 10%</text>
</svg>
