<svg xmlns="http://www.w3.org/2000/svg" viewBox="0 0 120 140" width="120" height="140">
  <defs>
    <linearGradient id="hexGrad" x1="0%" y1="0%" x2="0%" y2="100%">
      <stop offset="0%" style="stop-color:#00BFFF"/>
      <stop offset="100%" style="stop-color:#F5A623"/>
    </linearGradient>
  </defs>
  <!-- Hexagonal Icon -->
  <polygon points="60,5 115,32.5 115,87.5 60,115 5,87.5 5,32.5" fill="url(#hexGrad)" stroke="none"/>
  <!-- Inner hexagon highlight -->
  <polygon points="60,20 102,40 102,80 60,100 18,80 18,40" fill="#FFFFFF" opacity="0.15"/>
  <!-- Solar/Energy symbol -->
  <circle cx="60" cy="60" r="18" fill="none" stroke="#FFFFFF" stroke-width="3"/>
  <line x1="60" y1="36" x2="60" y2="44" stroke="#FFFFFF" stroke-width="2.5" stroke-linecap="round"/>
  <line x1="60" y1="76" x2="60" y2="84" stroke="#FFFFFF" stroke-width="2.5" stroke-linecap="round"/>
  <line x1="36" y1="60" x2="44" y2="60" stroke="#FFFFFF" stroke-width="2.5" stroke-linecap="round"/>
  <line x1="76" y1="60" x2="84" y2="60" stroke="#FFFFFF" stroke-width="2.5" stroke-linecap="round"/>
  <line x1="43" y1="43" x2="48.5" y2="48.5" stroke="#FFFFFF" stroke-width="2.5" stroke-linecap="round"/>
  <line x1="71.5" y1="71.5" x2="77" y2="77" stroke="#FFFFFF" stroke-width="2.5" stroke-linecap="round"/>
  <line x1="77" y1="43" x2="71.5" y2="48.5" stroke="#FFFFFF" stroke-width="2.5" stroke-linecap="round"/>
  <line x1="48.5" y1="71.5" x2="43" y2="77" stroke="#FFFFFF" stroke-width="2.5" stroke-linecap="round"/>
</svg>
