<svg xmlns="http://www.w3.org/2000/svg" viewBox="0 0 900 550" font-family="Arial, Helvetica, sans-serif">
  <rect width="900" height="550" fill="#1B2838" rx="12"/>
  <text x="450" y="35" text-anchor="middle" fill="#FFF" font-size="20" font-weight="bold">PECH AI Infrastructure</text>
  <text x="450" y="55" text-anchor="middle" fill="#00BFFF" font-size="12">Hardware + Cloud + Supporting Infrastructure — Lagos, Nigeria</text>

  <!-- Phase 1: TRX50 Workstation -->
  <rect x="30" y="80" width="400" height="200" rx="10" fill="#0D2137" stroke="#00BFFF" stroke-width="1.5"/>
  <text x="230" y="105" text-anchor="middle" fill="#00BFFF" font-size="14" font-weight="bold">TRX50 WORKSTATION (Phase 1)</text>
  <text x="230" y="125" text-anchor="middle" fill="#F5A623" font-size="11">₦8.2M-₦11M Landed Lagos</text>

  <rect x="50" y="140" width="160" height="30" rx="4" fill="#0099CC"/><text x="130" y="160" text-anchor="middle" fill="#FFF" font-size="10">RTX 4090 24GB — GPU</text>
  <rect x="50" y="178" width="160" height="25" rx="4" fill="#0099CC"/><text x="130" y="195" text-anchor="middle" fill="#FFF" font-size="9">Threadripper 7960X — 24C/48T</text>
  <rect x="50" y="210" width="160" height="25" rx="4" fill="#0099CC"/><text x="130" y="227" text-anchor="middle" fill="#FFF" font-size="9">128GB DDR5 ECC RDIMM</text>
  <rect x="50" y="242" width="160" height="25" rx="4" fill="#0099CC"/><text x="130" y="259" text-anchor="middle" fill="#FFF" font-size="9">5TB NVMe · 4U Rackmount</text>

  <rect x="230" y="140" width="180" height="130" rx="6" fill="#0D1B2A" stroke="#F5A623" stroke-width="1"/>
  <text x="320" y="160" text-anchor="middle" fill="#F5A623" font-size="10" font-weight="bold">Models Running (~14GB)</text>
  <text x="320" y="178" text-anchor="middle" fill="#FFF" font-size="8">Qwen2.5-7B (4.5GB)</text>
  <text x="320" y="192" text-anchor="middle" fill="#FFF" font-size="8">Qwen-Coder-7B (4.5GB)</text>
  <text x="320" y="206" text-anchor="middle" fill="#FFF" font-size="8">Qwen-VL-3B (2GB)</text>
  <text x="320" y="220" text-anchor="middle" fill="#FFF" font-size="8">Faster-Whisper (1GB)</text>
  <text x="320" y="234" text-anchor="middle" fill="#FFF" font-size="8">RT-DETR (2GB)</text>
  <text x="320" y="248" text-anchor="middle" fill="#FFF" font-size="8">+ CPU: OCR, TTS, NLP, ML</text>
  <text x="320" y="262" text-anchor="middle" fill="#00BFFF" font-size="8">10GB VRAM headroom</text>

  <!-- Phase 2: Same Workstation Upgraded -->
  <rect x="470" y="80" width="400" height="200" rx="10" fill="#0D2137" stroke="#F5A623" stroke-width="1.5"/>
  <text x="670" y="105" text-anchor="middle" fill="#F5A623" font-size="14" font-weight="bold">PHASE 2 UPGRADE (Same Box)</text>
  <text x="670" y="125" text-anchor="middle" fill="#F5A623" font-size="11">+₦4.1M-₦5.3M (Add GPU+RAM+SSD)</text>

  <rect x="490" y="140" width="160" height="60" rx="4" fill="#E08A00"/>
  <text x="570" y="160" text-anchor="middle" fill="#FFF" font-size="10" font-weight="bold">GPU 1: RTX 4090</text>
  <text x="570" y="178" text-anchor="middle" fill="#FFF" font-size="8">Qwen-14B + Coder-14B + Whisper</text>
  <text x="570" y="192" text-anchor="middle" fill="#FFF" font-size="8">20GB / 24GB used</text>
  <rect x="490" y="210" width="160" height="60" rx="4" fill="#E08A00"/>
  <text x="570" y="230" text-anchor="middle" fill="#FFF" font-size="10" font-weight="bold">GPU 2: RTX 4090 (NEW)</text>
  <text x="570" y="248" text-anchor="middle" fill="#FFF" font-size="8">Qwen-32B + VL-7B</text>
  <text x="570" y="262" text-anchor="middle" fill="#FFF" font-size="8">23GB / 24GB used</text>

  <rect x="670" y="140" width="180" height="130" rx="6" fill="#0D1B2A" stroke="#00BFFF" stroke-width="1"/>
  <text x="760" y="160" text-anchor="middle" fill="#00BFFF" font-size="10" font-weight="bold">Zero-Waste Upgrade</text>
  <text x="760" y="180" text-anchor="middle" fill="#FFF" font-size="9">Same Threadripper 7960X</text>
  <text x="760" y="198" text-anchor="middle" fill="#FFF" font-size="9">256GB DDR5 ECC (8/8 DIMMs)</text>
  <text x="760" y="216" text-anchor="middle" fill="#FFF" font-size="9">9TB NVMe (3/4 M.2 slots)</text>
  <text x="760" y="234" text-anchor="middle" fill="#FFF" font-size="9">Same TX-1600 PSU (pre-sized)</text>
  <text x="760" y="252" text-anchor="middle" fill="#FFF" font-size="9">vLLM Serving · Co-lo Ready</text>

  <!-- Supporting Infrastructure -->
  <rect x="30" y="300" width="840" height="120" rx="10" fill="#0D2137" stroke="#00BFFF" stroke-width="1"/>
  <text x="450" y="325" text-anchor="middle" fill="#00BFFF" font-size="14" font-weight="bold">SUPPORTING INFRASTRUCTURE (Critical for Nigeria)</text>
  <text x="450" y="343" text-anchor="middle" fill="#F5A623" font-size="11">₦3.75M-₦6.5M One-Time + ₦130K-₦250K/month</text>

  <rect x="50" y="355" width="120" height="50" rx="5" fill="#0099CC"/>
  <text x="110" y="375" text-anchor="middle" fill="#FFF" font-size="9" font-weight="bold">UPS 3kVA</text>
  <text x="110" y="392" text-anchor="middle" fill="#FFF" font-size="8">₦800K-₦1.2M</text>

  <rect x="185" y="355" width="120" height="50" rx="5" fill="#0099CC"/>
  <text x="245" y="375" text-anchor="middle" fill="#FFF" font-size="9" font-weight="bold">Solar 5kVA</text>
  <text x="245" y="392" text-anchor="middle" fill="#FFF" font-size="8">₦2M-₦3.5M</text>

  <rect x="320" y="355" width="120" height="50" rx="5" fill="#0099CC"/>
  <text x="380" y="375" text-anchor="middle" fill="#FFF" font-size="9" font-weight="bold">Server Room AC</text>
  <text x="380" y="392" text-anchor="middle" fill="#FFF" font-size="8">₦650K-₦1M</text>

  <rect x="455" y="355" width="120" height="50" rx="5" fill="#0099CC"/>
  <text x="515" y="375" text-anchor="middle" fill="#FFF" font-size="9" font-weight="bold">Fiber 100Mbps</text>
  <text x="515" y="392" text-anchor="middle" fill="#FFF" font-size="8">₦100-200K/mo</text>

  <rect x="590" y="355" width="120" height="50" rx="5" fill="#0099CC"/>
  <text x="650" y="375" text-anchor="middle" fill="#FFF" font-size="9" font-weight="bold">Firewall + Switch</text>
  <text x="650" y="392" text-anchor="middle" fill="#FFF" font-size="8">₦180K-₦450K</text>

  <rect x="725" y="355" width="120" height="50" rx="5" fill="#0099CC"/>
  <text x="785" y="375" text-anchor="middle" fill="#FFF" font-size="9" font-weight="bold">IoT Monitoring</text>
  <text x="785" y="392" text-anchor="middle" fill="#FFF" font-size="8">₦30K-₦60K</text>

  <!-- Cloud GPU -->
  <rect x="30" y="440" width="400" height="70" rx="10" fill="#0D2137" stroke="#F5A623" stroke-width="1"/>
  <text x="230" y="465" text-anchor="middle" fill="#F5A623" font-size="12" font-weight="bold">CLOUD GPU BURST (Phase 1-2)</text>
  <text x="230" y="485" text-anchor="middle" fill="#FFF" font-size="10">RunPod / Vast.ai | A100 80GB | $1.50-$2.50/hr</text>
  <text x="230" y="500" text-anchor="middle" fill="#FFF" font-size="9">Fine-tuning + peak overflow | ₦200K-₦500K/month</text>

  <!-- Total -->
  <rect x="470" y="440" width="400" height="70" rx="10" fill="#0D2137" stroke="#00BFFF" stroke-width="1"/>
  <text x="670" y="465" text-anchor="middle" fill="#00BFFF" font-size="12" font-weight="bold">24-MONTH TOTAL COST</text>
  <text x="670" y="485" text-anchor="middle" fill="#FFF" font-size="10">Phase 1 + Cloud: ₦15.1M-₦21.2M</text>
  <text x="670" y="500" text-anchor="middle" fill="#FFF" font-size="10">Phase 1+2 + Cloud: ₦21M-₦29.2M</text>

  <text x="450" y="538" text-anchor="middle" fill="#666" font-size="10">PECH Group Holdings Ltd — AI Infrastructure — China Sourced, Lagos Deployed</text>
</svg>
