<svg xmlns="http://www.w3.org/2000/svg" viewBox="0 0 900 650" font-family="Arial, Helvetica, sans-serif">
  <defs>
    <linearGradient id="bg" x1="0%" y1="0%" x2="0%" y2="100%">
      <stop offset="0%" style="stop-color:#1B2838"/>
      <stop offset="100%" style="stop-color:#0D1B2A"/>
    </linearGradient>
  </defs>
  <rect width="900" height="650" fill="url(#bg)" rx="12"/>
  <text x="450" y="35" text-anchor="middle" fill="#FFF" font-size="20" font-weight="bold">PECH AI Model Stack</text>
  <text x="450" y="55" text-anchor="middle" fill="#00BFFF" font-size="12">All Models Apache-2.0 or MIT Licensed — Self-Hosted</text>

  <!-- Row 1: LLMs -->
  <rect x="30" y="80" width="840" height="90" rx="8" fill="#0D2137" stroke="#00BFFF" stroke-width="1"/>
  <text x="50" y="100" fill="#00BFFF" font-size="13" font-weight="bold">LARGE LANGUAGE MODELS</text>
  <rect x="50" y="110" width="100" height="45" rx="5" fill="#0099CC"/>
  <text x="100" y="130" text-anchor="middle" fill="#FFF" font-size="10" font-weight="bold">Qwen2.5-72B</text>
  <text x="100" y="145" text-anchor="middle" fill="#FFF" font-size="8">Apache-2.0 | 40GB Q4</text>
  <rect x="160" y="110" width="100" height="45" rx="5" fill="#0099CC"/>
  <text x="210" y="130" text-anchor="middle" fill="#FFF" font-size="10" font-weight="bold">Qwen2.5-14B</text>
  <text x="210" y="145" text-anchor="middle" fill="#FFF" font-size="8">Apache-2.0 | 8GB Q4</text>
  <rect x="270" y="110" width="100" height="45" rx="5" fill="#0099CC"/>
  <text x="320" y="130" text-anchor="middle" fill="#FFF" font-size="10" font-weight="bold">Qwen2.5-7B</text>
  <text x="320" y="145" text-anchor="middle" fill="#FFF" font-size="8">Apache-2.0 | 4.5GB Q4</text>
  <rect x="380" y="110" width="100" height="45" rx="5" fill="#0099CC"/>
  <text x="430" y="130" text-anchor="middle" fill="#FFF" font-size="10" font-weight="bold">Phi-4 14B</text>
  <text x="430" y="145" text-anchor="middle" fill="#FFF" font-size="8">MIT | 8GB Q4</text>
  <rect x="490" y="110" width="100" height="45" rx="5" fill="#0099CC"/>
  <text x="540" y="130" text-anchor="middle" fill="#FFF" font-size="10" font-weight="bold">Mistral-7B</text>
  <text x="540" y="145" text-anchor="middle" fill="#FFF" font-size="8">Apache-2.0 | 4.5GB Q4</text>
  <rect x="600" y="110" width="100" height="45" rx="5" fill="#0099CC"/>
  <text x="650" y="130" text-anchor="middle" fill="#FFF" font-size="10" font-weight="bold">Mixtral-8x7B</text>
  <text x="650" y="145" text-anchor="middle" fill="#FFF" font-size="8">Apache-2.0 | 26GB Q4</text>
  <rect x="710" y="110" width="140" height="45" rx="5" fill="#0099CC"/>
  <text x="780" y="130" text-anchor="middle" fill="#FFF" font-size="10" font-weight="bold">DeepSeek-R1-Distill</text>
  <text x="780" y="145" text-anchor="middle" fill="#FFF" font-size="8">MIT | 4.5GB Q4</text>

  <!-- Row 2: Code + Vision -->
  <rect x="30" y="185" width="410" height="80" rx="8" fill="#0D2137" stroke="#F5A623" stroke-width="1"/>
  <text x="50" y="205" fill="#F5A623" font-size="13" font-weight="bold">CODE GENERATION</text>
  <rect x="50" y="215" width="115" height="38" rx="5" fill="#E08A00"/>
  <text x="107" y="233" text-anchor="middle" fill="#FFF" font-size="9" font-weight="bold">Qwen2.5-Coder-14B</text>
  <text x="107" y="246" text-anchor="middle" fill="#FFF" font-size="8">Apache-2.0</text>
  <rect x="175" y="215" width="115" height="38" rx="5" fill="#E08A00"/>
  <text x="232" y="233" text-anchor="middle" fill="#FFF" font-size="9" font-weight="bold">Qwen2.5-Coder-7B</text>
  <text x="232" y="246" text-anchor="middle" fill="#FFF" font-size="8">Apache-2.0</text>
  <rect x="300" y="215" width="125" height="38" rx="5" fill="#E08A00"/>
  <text x="362" y="233" text-anchor="middle" fill="#FFF" font-size="9" font-weight="bold">DeepSeek-Coder-V2</text>
  <text x="362" y="246" text-anchor="middle" fill="#FFF" font-size="8">MIT</text>

  <rect x="460" y="185" width="410" height="80" rx="8" fill="#0D2137" stroke="#F5A623" stroke-width="1"/>
  <text x="480" y="205" fill="#F5A623" font-size="13" font-weight="bold">VISION &amp; MULTIMODAL</text>
  <rect x="480" y="215" width="115" height="38" rx="5" fill="#E08A00"/>
  <text x="537" y="233" text-anchor="middle" fill="#FFF" font-size="9" font-weight="bold">Qwen2.5-VL-7B</text>
  <text x="537" y="246" text-anchor="middle" fill="#FFF" font-size="8">Apache-2.0</text>
  <rect x="605" y="215" width="115" height="38" rx="5" fill="#E08A00"/>
  <text x="662" y="233" text-anchor="middle" fill="#FFF" font-size="9" font-weight="bold">Qwen2.5-VL-3B</text>
  <text x="662" y="246" text-anchor="middle" fill="#FFF" font-size="8">Apache-2.0</text>
  <rect x="730" y="215" width="115" height="38" rx="5" fill="#E08A00"/>
  <text x="787" y="233" text-anchor="middle" fill="#FFF" font-size="9" font-weight="bold">Phi-3-Vision</text>
  <text x="787" y="246" text-anchor="middle" fill="#FFF" font-size="8">MIT</text>

  <!-- Row 3: Speech + OCR -->
  <rect x="30" y="280" width="410" height="80" rx="8" fill="#0D2137" stroke="#00BFFF" stroke-width="1"/>
  <text x="50" y="300" fill="#00BFFF" font-size="13" font-weight="bold">SPEECH (STT + TTS)</text>
  <rect x="50" y="310" width="90" height="38" rx="5" fill="#0099CC"/>
  <text x="95" y="328" text-anchor="middle" fill="#FFF" font-size="9" font-weight="bold">Whisper-v3</text>
  <text x="95" y="341" text-anchor="middle" fill="#FFF" font-size="8">MIT</text>
  <rect x="150" y="310" width="90" height="38" rx="5" fill="#0099CC"/>
  <text x="195" y="328" text-anchor="middle" fill="#FFF" font-size="9" font-weight="bold">Faster-Whisper</text>
  <text x="195" y="341" text-anchor="middle" fill="#FFF" font-size="8">MIT</text>
  <rect x="250" y="310" width="80" height="38" rx="5" fill="#0099CC"/>
  <text x="290" y="328" text-anchor="middle" fill="#FFF" font-size="9" font-weight="bold">Piper TTS</text>
  <text x="290" y="341" text-anchor="middle" fill="#FFF" font-size="8">MIT</text>
  <rect x="340" y="310" width="85" height="38" rx="5" fill="#0099CC"/>
  <text x="382" y="328" text-anchor="middle" fill="#FFF" font-size="9" font-weight="bold">Kokoro TTS</text>
  <text x="382" y="341" text-anchor="middle" fill="#FFF" font-size="8">Apache-2.0</text>

  <rect x="460" y="280" width="410" height="80" rx="8" fill="#0D2137" stroke="#00BFFF" stroke-width="1"/>
  <text x="480" y="300" fill="#00BFFF" font-size="13" font-weight="bold">OCR + DETECTION</text>
  <rect x="480" y="310" width="95" height="38" rx="5" fill="#0099CC"/>
  <text x="527" y="328" text-anchor="middle" fill="#FFF" font-size="9" font-weight="bold">PaddleOCR v4</text>
  <text x="527" y="341" text-anchor="middle" fill="#FFF" font-size="8">Apache-2.0</text>
  <rect x="585" y="310" width="95" height="38" rx="5" fill="#0099CC"/>
  <text x="632" y="328" text-anchor="middle" fill="#FFF" font-size="9" font-weight="bold">Tesseract 5</text>
  <text x="632" y="341" text-anchor="middle" fill="#FFF" font-size="8">Apache-2.0</text>
  <rect x="690" y="310" width="95" height="38" rx="5" fill="#0099CC"/>
  <text x="737" y="328" text-anchor="middle" fill="#FFF" font-size="9" font-weight="bold">RT-DETR</text>
  <text x="737" y="341" text-anchor="middle" fill="#FFF" font-size="8">Apache-2.0</text>
  <rect x="795" y="310" width="60" height="38" rx="5" fill="#0099CC"/>
  <text x="825" y="328" text-anchor="middle" fill="#FFF" font-size="9" font-weight="bold">rembg</text>
  <text x="825" y="341" text-anchor="middle" fill="#FFF" font-size="8">MIT</text>

  <!-- Row 4: Embeddings + ML -->
  <rect x="30" y="375" width="410" height="80" rx="8" fill="#0D2137" stroke="#F5A623" stroke-width="1"/>
  <text x="50" y="395" fill="#F5A623" font-size="13" font-weight="bold">EMBEDDINGS + NLP</text>
  <rect x="50" y="405" width="90" height="38" rx="5" fill="#E08A00"/>
  <text x="95" y="421" text-anchor="middle" fill="#FFF" font-size="8" font-weight="bold">MiniLM-L6-v2</text>
  <text x="95" y="434" text-anchor="middle" fill="#FFF" font-size="7">Apache-2.0 | 80MB</text>
  <rect x="150" y="405" width="90" height="38" rx="5" fill="#E08A00"/>
  <text x="195" y="421" text-anchor="middle" fill="#FFF" font-size="8" font-weight="bold">Nomic-Embed</text>
  <text x="195" y="434" text-anchor="middle" fill="#FFF" font-size="7">Apache-2.0 | 550MB</text>
  <rect x="250" y="405" width="80" height="38" rx="5" fill="#E08A00"/>
  <text x="290" y="421" text-anchor="middle" fill="#FFF" font-size="8" font-weight="bold">BGE-M3</text>
  <text x="290" y="434" text-anchor="middle" fill="#FFF" font-size="7">MIT | Multilingual</text>
  <rect x="340" y="405" width="85" height="38" rx="5" fill="#E08A00"/>
  <text x="382" y="421" text-anchor="middle" fill="#FFF" font-size="8" font-weight="bold">DistilBERT</text>
  <text x="382" y="434" text-anchor="middle" fill="#FFF" font-size="7">Apache-2.0 | NLP</text>

  <rect x="460" y="375" width="410" height="80" rx="8" fill="#0D2137" stroke="#F5A623" stroke-width="1"/>
  <text x="480" y="395" fill="#F5A623" font-size="13" font-weight="bold">TRADITIONAL ML</text>
  <rect x="480" y="405" width="80" height="38" rx="5" fill="#E08A00"/>
  <text x="520" y="421" text-anchor="middle" fill="#FFF" font-size="9" font-weight="bold">XGBoost</text>
  <text x="520" y="434" text-anchor="middle" fill="#FFF" font-size="7">Apache-2.0</text>
  <rect x="570" y="405" width="80" height="38" rx="5" fill="#E08A00"/>
  <text x="610" y="421" text-anchor="middle" fill="#FFF" font-size="9" font-weight="bold">LightGBM</text>
  <text x="610" y="434" text-anchor="middle" fill="#FFF" font-size="7">MIT</text>
  <rect x="660" y="405" width="75" height="38" rx="5" fill="#E08A00"/>
  <text x="697" y="421" text-anchor="middle" fill="#FFF" font-size="9" font-weight="bold">Prophet</text>
  <text x="697" y="434" text-anchor="middle" fill="#FFF" font-size="7">MIT</text>
  <rect x="745" y="405" width="80" height="38" rx="5" fill="#E08A00"/>
  <text x="785" y="421" text-anchor="middle" fill="#FFF" font-size="9" font-weight="bold">LightFM</text>
  <text x="785" y="434" text-anchor="middle" fill="#FFF" font-size="7">Apache-2.0</text>

  <!-- Row 5: Small Models + Edge -->
  <rect x="30" y="470" width="840" height="70" rx="8" fill="#0D2137" stroke="#00BFFF" stroke-width="1"/>
  <text x="50" y="490" fill="#00BFFF" font-size="13" font-weight="bold">SMALL / EDGE MODELS</text>
  <rect x="50" y="500" width="105" height="30" rx="5" fill="#0099CC"/>
  <text x="102" y="519" text-anchor="middle" fill="#FFF" font-size="9">SmolLM2-1.7B</text>
  <rect x="165" y="500" width="105" height="30" rx="5" fill="#0099CC"/>
  <text x="217" y="519" text-anchor="middle" fill="#FFF" font-size="9">Qwen2.5-0.5B</text>
  <rect x="280" y="500" width="105" height="30" rx="5" fill="#0099CC"/>
  <text x="332" y="519" text-anchor="middle" fill="#FFF" font-size="9">TinyLlama-1.1B</text>
  <rect x="395" y="500" width="105" height="30" rx="5" fill="#0099CC"/>
  <text x="447" y="519" text-anchor="middle" fill="#FFF" font-size="9">Phi-3-Mini 3.8B</text>
  <rect x="510" y="500" width="105" height="30" rx="5" fill="#0099CC"/>
  <text x="562" y="519" text-anchor="middle" fill="#FFF" font-size="9">H2O Danube 500M</text>
  <rect x="625" y="500" width="105" height="30" rx="5" fill="#0099CC"/>
  <text x="677" y="519" text-anchor="middle" fill="#FFF" font-size="9">whisper.cpp</text>
  <rect x="740" y="500" width="115" height="30" rx="5" fill="#0099CC"/>
  <text x="797" y="519" text-anchor="middle" fill="#FFF" font-size="9">Argos Translate</text>

  <!-- Serving layer -->
  <rect x="30" y="560" width="840" height="50" rx="8" fill="#0D2137" stroke="#F5A623" stroke-width="1"/>
  <text x="450" y="582" text-anchor="middle" fill="#F5A623" font-size="13" font-weight="bold">SERVING: Ollama (Phase 1) → vLLM (Phase 2) → vLLM Cluster (Phase 3)</text>
  <text x="450" y="600" text-anchor="middle" fill="#FFF" font-size="10">RTX 4090 (24GB) | Qdrant Vectors | LangChain + LangGraph | Apache APISIX Gateway</text>

  <text x="450" y="638" text-anchor="middle" fill="#666" font-size="10">PECH Group Holdings Ltd — AI Model Stack — 50+ Models, All Open-Source</text>
</svg>
