<svg xmlns="http://www.w3.org/2000/svg" viewBox="0 0 900 500" font-family="Arial, Helvetica, sans-serif">
  <rect width="900" height="500" fill="#1B2838" rx="12"/>
  <text x="450" y="35" text-anchor="middle" fill="#FFF" font-size="20" font-weight="bold">PECH AI Team Structure</text>
  <text x="450" y="55" text-anchor="middle" fill="#00BFFF" font-size="12">12 New Roles | 3 Phases | ₦55M-₦87M Annual Team Cost</text>

  <!-- CTO at top -->
  <rect x="370" y="75" width="160" height="40" rx="6" fill="#F5A623"/>
  <text x="450" y="100" text-anchor="middle" fill="#1B2838" font-size="11" font-weight="bold">CTO / MD</text>
  <line x1="450" y1="115" x2="450" y2="135" stroke="#F5A623" stroke-width="2"/>

  <!-- 3 branches -->
  <line x1="200" y1="135" x2="700" y2="135" stroke="#F5A623" stroke-width="1.5"/>
  <line x1="200" y1="135" x2="200" y2="155" stroke="#F5A623" stroke-width="1.5"/>
  <line x1="450" y1="135" x2="450" y2="155" stroke="#F5A623" stroke-width="1.5"/>
  <line x1="700" y1="135" x2="700" y2="155" stroke="#F5A623" stroke-width="1.5"/>

  <!-- AI & Engineering Branch -->
  <rect x="120" y="155" width="160" height="35" rx="6" fill="#0099CC"/>
  <text x="200" y="177" text-anchor="middle" fill="#FFF" font-size="11" font-weight="bold">AI &amp; Engineering</text>

  <line x1="200" y1="190" x2="200" y2="210" stroke="#00BFFF" stroke-width="1"/>
  <line x1="80" y1="210" x2="320" y2="210" stroke="#00BFFF" stroke-width="1"/>

  <rect x="30" y="220" width="140" height="50" rx="5" fill="#0D2137" stroke="#00BFFF" stroke-width="1"/>
  <text x="100" y="240" text-anchor="middle" fill="#00BFFF" font-size="9" font-weight="bold">AI/ML Engineer (x2)</text>
  <text x="100" y="258" text-anchor="middle" fill="#FFF" font-size="8">₦600K-₦1M/mo each</text>
  <line x1="100" y1="210" x2="100" y2="220" stroke="#00BFFF" stroke-width="1"/>

  <rect x="180" y="220" width="140" height="50" rx="5" fill="#0D2137" stroke="#00BFFF" stroke-width="1"/>
  <text x="250" y="240" text-anchor="middle" fill="#00BFFF" font-size="9" font-weight="bold">AI Data Engineer</text>
  <text x="250" y="258" text-anchor="middle" fill="#FFF" font-size="8">₦400K-₦600K/mo</text>
  <line x1="250" y1="210" x2="250" y2="220" stroke="#00BFFF" stroke-width="1"/>

  <rect x="30" y="285" width="140" height="50" rx="5" fill="#0D2137" stroke="#00BFFF" stroke-width="1"/>
  <text x="100" y="305" text-anchor="middle" fill="#00BFFF" font-size="9" font-weight="bold">MLOps Engineer</text>
  <text x="100" y="323" text-anchor="middle" fill="#FFF" font-size="8">₦500K-₦800K/mo</text>

  <rect x="180" y="285" width="140" height="50" rx="5" fill="#0D2137" stroke="#00BFFF" stroke-width="1"/>
  <text x="250" y="305" text-anchor="middle" fill="#00BFFF" font-size="9" font-weight="bold">API/Platform Engineer</text>
  <text x="250" y="323" text-anchor="middle" fill="#FFF" font-size="8">₦450K-₦700K/mo</text>

  <!-- Product & Business Branch -->
  <rect x="370" y="155" width="160" height="35" rx="6" fill="#E08A00"/>
  <text x="450" y="177" text-anchor="middle" fill="#FFF" font-size="11" font-weight="bold">Product &amp; Business</text>

  <line x1="450" y1="190" x2="450" y2="210" stroke="#F5A623" stroke-width="1"/>
  <line x1="370" y1="210" x2="530" y2="210" stroke="#F5A623" stroke-width="1"/>

  <rect x="345" y="220" width="140" height="50" rx="5" fill="#0D2137" stroke="#F5A623" stroke-width="1"/>
  <text x="415" y="240" text-anchor="middle" fill="#F5A623" font-size="9" font-weight="bold">AI Product Manager</text>
  <text x="415" y="258" text-anchor="middle" fill="#FFF" font-size="8">₦500K-₦800K/mo</text>
  <line x1="415" y1="210" x2="415" y2="220" stroke="#F5A623" stroke-width="1"/>

  <rect x="495" y="220" width="140" height="50" rx="5" fill="#0D2137" stroke="#F5A623" stroke-width="1"/>
  <text x="565" y="240" text-anchor="middle" fill="#F5A623" font-size="9" font-weight="bold">Developer Advocate</text>
  <text x="565" y="258" text-anchor="middle" fill="#FFF" font-size="8">₦400K-₦600K/mo</text>
  <line x1="490" y1="210" x2="490" y2="220" stroke="#F5A623" stroke-width="1"/>

  <rect x="345" y="285" width="140" height="50" rx="5" fill="#0D2137" stroke="#F5A623" stroke-width="1"/>
  <text x="415" y="305" text-anchor="middle" fill="#F5A623" font-size="9" font-weight="bold">Technical Writer</text>
  <text x="415" y="323" text-anchor="middle" fill="#FFF" font-size="8">₦250K-₦400K/mo</text>

  <!-- Operations Branch -->
  <rect x="620" y="155" width="160" height="35" rx="6" fill="#0099CC"/>
  <text x="700" y="177" text-anchor="middle" fill="#FFF" font-size="11" font-weight="bold">Ops &amp; Infrastructure</text>

  <line x1="700" y1="190" x2="700" y2="210" stroke="#00BFFF" stroke-width="1"/>
  <line x1="620" y1="210" x2="780" y2="210" stroke="#00BFFF" stroke-width="1"/>

  <rect x="610" y="220" width="170" height="50" rx="5" fill="#0D2137" stroke="#00BFFF" stroke-width="1"/>
  <text x="695" y="240" text-anchor="middle" fill="#00BFFF" font-size="9" font-weight="bold">Installer Training Mgr</text>
  <text x="695" y="258" text-anchor="middle" fill="#FFF" font-size="8">₦350K-₦500K/mo</text>
  <line x1="660" y1="210" x2="660" y2="220" stroke="#00BFFF" stroke-width="1"/>

  <rect x="610" y="285" width="170" height="50" rx="5" fill="#0D2137" stroke="#00BFFF" stroke-width="1"/>
  <text x="695" y="305" text-anchor="middle" fill="#00BFFF" font-size="9" font-weight="bold">Fintech Ops / Agent Mgr</text>
  <text x="695" y="323" text-anchor="middle" fill="#FFF" font-size="8">₦400K-₦600K/mo</text>

  <!-- Interns -->
  <rect x="30" y="355" width="140" height="45" rx="5" fill="#0D2137" stroke="#F5A623" stroke-width="1"/>
  <text x="100" y="375" text-anchor="middle" fill="#F5A623" font-size="9" font-weight="bold">AI/ML Interns (x2)</text>
  <text x="100" y="390" text-anchor="middle" fill="#FFF" font-size="8">₦80K-₦120K/mo each</text>

  <!-- Hiring Phases -->
  <rect x="30" y="420" width="840" height="50" rx="8" fill="#0D1B2A" stroke="#00BFFF" stroke-width="1"/>
  <text x="50" y="442" fill="#00BFFF" font-size="11" font-weight="bold">HIRING PHASES:</text>
  <rect x="200" y="430" width="160" height="28" rx="4" fill="#0099CC"/>
  <text x="280" y="449" text-anchor="middle" fill="#FFF" font-size="9">Phase 1 (Mo 1-3): 3 hires</text>
  <rect x="375" y="430" width="160" height="28" rx="4" fill="#E08A00"/>
  <text x="455" y="449" text-anchor="middle" fill="#FFF" font-size="9">Phase 2 (Mo 4-9): 5 hires</text>
  <rect x="550" y="430" width="160" height="28" rx="4" fill="#0099CC"/>
  <text x="630" y="449" text-anchor="middle" fill="#FFF" font-size="9">Phase 3 (Mo 10-18): 4 hires</text>

  <text x="450" y="490" text-anchor="middle" fill="#666" font-size="10">PECH Group Holdings Ltd — AI Team — 12 People, Nigerian Market Salaries</text>
</svg>
